<svg id="Слой_1" data-name="Слой 1" xmlns="http://www.w3.org/2000/svg" xmlns:xlink="http://www.w3.org/1999/xlink" width="2230.32" height="1520.59" viewBox="0 0 2230.32 1520.59">
  <defs>
    <style>
      .cls-1 {
        fill: #74daee;
      }

      .cls-2 {
        fill: #4a2c6a;
      }

      .cls-3 {
        fill: #4a2c76;
      }

      .cls-4 {
        fill: #744da5;
      }

      .cls-5 {
        fill: #ff4a1e;
      }

      .cls-6 {
        fill: #ffe48f;
      }

      .cls-7 {
        fill: #ee8914;
      }

      .cls-8 {
        fill: #6139bc;
      }

      .cls-9 {
        fill: #ffc639;
      }

      .cls-10 {
        fill: #ebe7f7;
      }

      .cls-11 {
        fill: #ff7042;
      }

      .cls-12 {
        fill: #fcebe3;
      }

      .cls-13 {
        fill: #c8d1ce;
      }

      .cls-14 {
        fill: url(#Безымянный_градиент_10);
      }

      .cls-15 {
        fill: url(#Безымянный_градиент_10-2);
      }

      .cls-16 {
        fill: #ffc22a;
      }

      .cls-17 {
        fill: #7c409c;
      }

      .cls-18 {
        fill: url(#Безымянный_градиент_10-3);
      }

      .cls-19 {
        fill: url(#Безымянный_градиент_10-4);
      }

      .cls-20 {
        fill: #ff9f23;
      }

      .cls-21 {
        fill: #ffc5a7;
      }

      .cls-22 {
        fill: #f2ac8c;
      }

      .cls-23 {
        fill: #eaeaea;
      }

      .cls-24 {
        fill: #fff;
      }

      .cls-25 {
        fill: #56309e;
      }

      .cls-26 {
        fill: #6f4bc2;
      }

      .cls-27 {
        fill: #5a3f77;
      }

      .cls-28 {
        fill: url(#Безымянный_градиент_10-5);
      }

      .cls-29 {
        fill: url(#Безымянный_градиент_10-6);
      }

      .cls-30 {
        fill: url(#Безымянный_градиент_10-7);
      }

      .cls-31 {
        fill: url(#Безымянный_градиент_10-8);
      }

      .cls-32 {
        fill: url(#Безымянный_градиент_10-9);
      }

      .cls-33 {
        fill: #4ac6f0;
      }
    </style>
    <linearGradient id="Безымянный_градиент_10" data-name="Безымянный градиент 10" x1="1573.66" y1="869.06" x2="1994.39" y2="869.06" gradientUnits="userSpaceOnUse">
      <stop offset="0" stop-color="#fed747"/>
      <stop offset="1" stop-color="#f94e43"/>
    </linearGradient>
    <linearGradient id="Безымянный_градиент_10-2" x1="1990.44" y1="825.84" x2="2414.94" y2="825.84" xlink:href="#Безымянный_градиент_10"/>
    <linearGradient id="Безымянный_градиент_10-3" x1="1221.9" y1="843.12" x2="1307.96" y2="843.12" xlink:href="#Безымянный_градиент_10"/>
    <linearGradient id="Безымянный_градиент_10-4" x1="1308.08" y1="814.98" x2="1371.44" y2="814.98" xlink:href="#Безымянный_градиент_10"/>
    <linearGradient id="Безымянный_градиент_10-5" x1="1086.71" y1="1252.2" x2="1346.94" y2="1252.2" gradientTransform="translate(17.94 -17.18) rotate(0.82)" xlink:href="#Безымянный_градиент_10"/>
    <linearGradient id="Безымянный_градиент_10-6" x1="2554.68" y1="1483.17" x2="2725.21" y2="1483.17" xlink:href="#Безымянный_градиент_10"/>
    <linearGradient id="Безымянный_градиент_10-7" x1="2662.23" y1="1307.42" x2="2758.47" y2="1307.42" xlink:href="#Безымянный_градиент_10"/>
    <linearGradient id="Безымянный_градиент_10-8" x1="1841.73" y1="700.7" x2="1918.82" y2="700.7" xlink:href="#Безымянный_градиент_10"/>
    <linearGradient id="Безымянный_градиент_10-9" x1="1675.24" y1="1719.25" x2="1812.94" y2="1719.25" xlink:href="#Безымянный_градиент_10"/>
  </defs>
  <title>prizes</title>
  <g>
    <g>
      <path class="cls-1" d="M904.61,1788.22s-264-358-44.65-745.63c194.63-343.92,421.56-320.41,588-180.85,70.91,59.45,275.36,7.33,449.36-342.62,237.3-477.23,1059.85-187.79,909.87,546.45-72.58,355.32,220.89,368.23,71.36,723.41Z" transform="translate(-766.44 -273.26)"/>
      <rect class="cls-2" y="1512.67" width="2230.32" height="6.11" rx="2.2"/>
    </g>
    <ellipse class="cls-1" cx="1509.87" cy="504.81" rx="270.79" ry="194.97" transform="translate(-720.19 857.95) rotate(-41.66)"/>
    <ellipse class="cls-1" cx="1119.25" cy="616.96" rx="60.23" ry="83.65" transform="translate(-893.5 626.67) rotate(-41.66)"/>
    <path class="cls-1" d="M2787.18,518.08c-10.17-45.07,7.88-87.54,40.33-94.86s67,23.26,77.17,68.33-7.87,87.54-40.32,94.86S2797.36,563.15,2787.18,518.08Z" transform="translate(-766.44 -273.26)"/>
  </g>
  <g>
    <path class="cls-3" d="M2808.34,1456.67c-16.51-61-119.38-41.91-119.38-41.91s-69.85,106.68-90.17,109.22,41.91-102.87,41.91-102.87c-39.37-3.81-139.71,44.45-139.71,44.45s6.35,124.46-14,121.92,0-110.49,0-110.49c-38.1,11.43-73.66,55.88-73.66,55.88-44.45,72.39,50.8,125.74,50.8,125.74s1.27,43.18-25.4,92.71h0s-6,9.14-12.14,24.69H2437c.85-2.79,1.78-5.48,2.82-8.06,0,0,0,0,0,0s0-.07,0-.11c.72-1.61,1.74-3.89,3-6.67h0v0c3.18-6.21,5.32-10.8,6.68-14.11v0c9.51-19.5,23.21-44.91,32.34-50.24a20.09,20.09,0,0,1-2.22-4.77l2.22,4.77c17.78,38.1,106.69,44.45,156.22,34.29s27.94-24.13,1.27-46.81-82.55-16.69-99.07-25.58,7.62-17.78,40.65-15.24,49.53,35.56,102.87,40.64,94-95.26,94-95.26c-36.83,11.43-102.87-8.89-105.41-21.59s95.25-11.43,110.49-15.24S2824.85,1517.63,2808.34,1456.67Z" transform="translate(-766.44 -273.26)"/>
    <path class="cls-1" d="M1406.36,1473.3s4.54,36.22-2.25,36.65-2.15-40.72-2.15-40.72-32.29-18-45.42-17.59c0,0,18.49,36.23,11.8,35s-27.68-38.06-27.68-38.06-33.73-8.41-40.45,11.47,1.51,30.53,6.49,32.11,37.43,3.14,36.33,7.3-23.42,9.55-35.4,5c0,0,11.44,34.11,29.23,33.51s23.94-11.22,34.94-11.39,18.83,3.27,13.17,5.89-24.06-.51-33.37,6.46-16.75,11.17-.53,15.55,45.83,4.08,52.5-8.19l.84-1.53a7,7,0,0,1-.84,1.53c2.92,2,7,10.66,9.71,17.33.38,1.12,1,2.69,1.92,4.82h0c.38,1,.67,1.75.87,2.3,4.91,14.84.3,39.67.3,39.67l3.45,1.16c9.33-24.74-3-46.29-3-46.29-7.84-17-6.54-31.26-6.54-31.26s32.68-15.75,19.41-40.67C1429.65,1493.33,1418.76,1477.87,1406.36,1473.3Z" transform="translate(-766.44 -273.26)"/>
    <path class="cls-3" d="M1162,1634.94c-2.93-44.67,70.43-55.52,70.43-55.52s71.34,55.5,85.54,52.54-51.72-59.36-51.72-59.36c25.53-11.6,103.89-2.27,103.89-2.27s24.32,84.91,37.36,78.55-25.37-74.1-25.37-74.1c28.17-1.08,62.22,20.56,62.22,20.56,46.43,38.34-5.19,96-5.19,96s9.06,29.25,38.32,56.34h0a104.84,104.84,0,0,1,13.81,13.76l-7,2.39c-1.21-1.67-2.45-3.26-3.74-4.76l0,0-.06-.06c-.85-.91-2.06-2.21-3.55-3.78h0c-3.56-3.43-6-6-7.72-7.93v0c-10.86-10.89-25.88-24.78-33.23-26.26a14.34,14.34,0,0,0,.4-3.71c-.13,1.19-.26,2.42-.4,3.71-3.17,29.63-61.33,54.3-96.87,58.86s-24.28-9.76-11.6-31.09,51.52-30.15,60.55-39.9-9.19-10.18-30.75-.89-25,35.22-59.65,50.87-84.89-42.29-84.89-42.29c27.32-.8,66.94-29.58,65.72-38.68S1212,1692,1200.91,1693,1164.94,1679.6,1162,1634.94Z" transform="translate(-766.44 -273.26)"/>
    <g>
      <path class="cls-4" d="M2535.83,833.78s-7.82-5.91-9.84-14.73c-1.5-6.55,2.26-14.76,2.57-15.14l-10.48-2.08s-3.1,13.9,2.15,23.15c1.61,2.83,6.28,6.73,9.29,8.19A9.1,9.1,0,0,0,2535.83,833.78Z" transform="translate(-766.44 -273.26)"/>
      <path class="cls-5" d="M2554,827.4l9.53,10.91s-27,7.15-42.35-11.91C2521.22,826.4,2543.9,834.07,2554,827.4Z" transform="translate(-766.44 -273.26)"/>
    </g>
    <g>
      <path class="cls-6" d="M2062.74,690.5s9.73-16.14,26.88-6.26L2099,674s-9.82-6.5-30.58,7.64C2054.85,690.9,2062.74,690.5,2062.74,690.5Z" transform="translate(-766.44 -273.26)"/>
      <path class="cls-6" d="M2053.13,706.33s-3.26-17.59,25.7-30.57c0,0-10.39,5.89-12.56,23.78Z" transform="translate(-766.44 -273.26)"/>
    </g>
    <g>
      <path class="cls-7" d="M1462.82,1214.33s-15.93-6.27-9.67-23.13l-10.58-6.87s-4.34,9.78,11.46,26.24C1464.36,1221.34,1462.82,1214.33,1462.82,1214.33Z" transform="translate(-766.44 -273.26)"/>
      <path class="cls-8" d="M1478.44,1220.55s-15.26,5.58-31.26-18.4c0,0,6.85,8.42,23.2,7.66Z" transform="translate(-766.44 -273.26)"/>
    </g>
    <path class="cls-9" d="M1508.71,993.52s8.79-5.56,9.71-12.26c0,0,8.56.46,10.41,3.23,0,0-3.93,11.11-8.56,13.19C1520.27,997.68,1509.86,998.37,1508.71,993.52Z" transform="translate(-766.44 -273.26)"/>
    <path class="cls-4" d="M931.8,1394.74s-9.38-5.93-10.37-13.08c0,0-9.13.49-11.1,3.45,0,0,4.19,11.85,9.13,14.07C919.46,1399.18,930.56,1399.92,931.8,1394.74Z" transform="translate(-766.44 -273.26)"/>
    <path class="cls-5" d="M1982.43,871.93s-13.1-8.27-14.48-18.27c0,0-12.75.69-15.51,4.83,0,0,5.86,16.54,12.75,19.64C1965.19,878.13,1980.7,879.17,1982.43,871.93Z" transform="translate(-766.44 -273.26)"/>
    <g>
      <path class="cls-8" d="M2786.52,833.47l81.41,254.9a21.53,21.53,0,0,1-13.92,27l-447.16,142.83a21.55,21.55,0,0,1-27-13.93l-81.41-254.9a21.53,21.53,0,0,1,13.92-27l447.16-142.82A21.54,21.54,0,0,1,2786.52,833.47Z" transform="translate(-766.44 -273.26)"/>
      <g>
        <path class="cls-10" d="M2529.36,1157.49l-119.18,38.06a9.66,9.66,0,0,1-12.1-6.24l-.36-1.15a9.64,9.64,0,0,1,6.24-12.09L2523.13,1138a9.66,9.66,0,0,1,12.1,6.24l.37,1.15A9.66,9.66,0,0,1,2529.36,1157.49Z" transform="translate(-766.44 -273.26)"/>
        <path class="cls-10" d="M2686.41,1107.32l-119.18,38.07a9.66,9.66,0,0,1-12.1-6.24l-.36-1.15a9.65,9.65,0,0,1,6.24-12.09l119.18-38.07a9.65,9.65,0,0,1,12.09,6.24l.37,1.15A9.65,9.65,0,0,1,2686.41,1107.32Z" transform="translate(-766.44 -273.26)"/>
        <g>
          <path class="cls-10" d="M2544.56,1021.21a23.24,23.24,0,0,1,1.14,11.41,10.54,10.54,0,0,1-17.66,5.63,23.25,23.25,0,0,1-5.68-10q-2.09-6.52-1.17-11.35a10.62,10.62,0,0,1,17.74-5.67Q2542.49,1014.7,2544.56,1021.21Zm-5.47,1.72a23.13,23.13,0,0,0-3.12-6.57c-1.84-2.47-3.84-3.37-6-2.68s-3.35,2.59-3.39,5.64a22.07,22.07,0,0,0,1.24,7.21q3.55,11.13,9.23,9.31,3.27-1,3.32-5.7A23.37,23.37,0,0,0,2539.09,1022.93Z" transform="translate(-766.44 -273.26)"/>
          <path class="cls-10" d="M2569,1013.39a23.25,23.25,0,0,1,1.14,11.41,10.55,10.55,0,0,1-17.66,5.64,27.72,27.72,0,0,1-6.85-21.31,10.62,10.62,0,0,1,17.74-5.66Q2567,1006.88,2569,1013.39Zm-5.47,1.73a22.87,22.87,0,0,0-3.12-6.57q-2.76-3.72-6-2.68c-2.22.71-3.35,2.58-3.39,5.63a22.13,22.13,0,0,0,1.24,7.22q3.55,11.12,9.23,9.31,3.27-1,3.32-5.71A23.31,23.31,0,0,0,2563.56,1015.12Z" transform="translate(-766.44 -273.26)"/>
          <path class="cls-10" d="M2606.11,1001.55a23.21,23.21,0,0,1,1.14,11.4,10.54,10.54,0,0,1-17.66,5.64,23.25,23.25,0,0,1-5.68-10q-2.09-6.52-1.17-11.35a10.63,10.63,0,0,1,17.75-5.67A23.36,23.36,0,0,1,2606.11,1001.55Zm-5.47,1.72a23.13,23.13,0,0,0-3.12-6.57c-1.84-2.47-3.84-3.37-6-2.68s-3.34,2.59-3.39,5.64a22.34,22.34,0,0,0,1.24,7.21q3.55,11.13,9.23,9.31c2.19-.7,3.29-2.6,3.32-5.7A23.07,23.07,0,0,0,2600.64,1003.27Z" transform="translate(-766.44 -273.26)"/>
          <path class="cls-10" d="M2630.58,993.73a23.25,23.25,0,0,1,1.14,11.41,10.55,10.55,0,0,1-17.66,5.64,27.72,27.72,0,0,1-6.85-21.31,10.62,10.62,0,0,1,17.75-5.66A23.32,23.32,0,0,1,2630.58,993.73Zm-5.47,1.73a22.87,22.87,0,0,0-3.12-6.57q-2.76-3.72-6-2.68t-3.39,5.63a22.4,22.4,0,0,0,1.24,7.22q3.55,11.12,9.23,9.31c2.19-.7,3.29-2.6,3.32-5.71A22.73,22.73,0,0,0,2625.11,995.46Z" transform="translate(-766.44 -273.26)"/>
          <path class="cls-10" d="M2655.05,985.92a23.2,23.2,0,0,1,1.14,11.4,10.53,10.53,0,0,1-17.65,5.64q-3.61-3.44-5.69-10a23.59,23.59,0,0,1-1.17-11.35,10.63,10.63,0,0,1,17.75-5.67A23.3,23.3,0,0,1,2655.05,985.92Zm-5.47,1.72a23.13,23.13,0,0,0-3.12-6.57c-1.84-2.47-3.84-3.37-6-2.68s-3.34,2.59-3.39,5.63a22.35,22.35,0,0,0,1.24,7.22q3.55,11.13,9.23,9.31c2.19-.7,3.29-2.6,3.32-5.7A22.78,22.78,0,0,0,2649.58,987.64Z" transform="translate(-766.44 -273.26)"/>
          <path class="cls-10" d="M2679.52,978.1a23.25,23.25,0,0,1,1.14,11.41,10.54,10.54,0,0,1-17.65,5.64q-3.62-3.43-5.69-10a23.57,23.57,0,0,1-1.17-11.35,10.62,10.62,0,0,1,17.75-5.66A23.32,23.32,0,0,1,2679.52,978.1Zm-5.47,1.73a22.87,22.87,0,0,0-3.12-6.57q-2.76-3.72-6-2.68t-3.39,5.63a22.4,22.4,0,0,0,1.24,7.22q3.55,11.12,9.23,9.3c2.19-.69,3.3-2.6,3.32-5.7A22.73,22.73,0,0,0,2674.05,979.83Z" transform="translate(-766.44 -273.26)"/>
          <path class="cls-10" d="M2716.61,966.26a23.2,23.2,0,0,1,1.14,11.4,10.54,10.54,0,0,1-17.66,5.64,23.31,23.31,0,0,1-5.68-9.95q-2.09-6.52-1.17-11.35a10.62,10.62,0,0,1,17.74-5.67Q2714.54,959.74,2716.61,966.26Zm-5.47,1.72a23.13,23.13,0,0,0-3.12-6.57q-2.76-3.72-6-2.68t-3.39,5.63a22.09,22.09,0,0,0,1.24,7.22q3.54,11.13,9.23,9.31,3.27-1,3.32-5.7A23.32,23.32,0,0,0,2711.14,968Z" transform="translate(-766.44 -273.26)"/>
          <path class="cls-10" d="M2741.08,958.44a23.25,23.25,0,0,1,1.14,11.41,10.55,10.55,0,0,1-17.66,5.64,27.72,27.72,0,0,1-6.85-21.31,10.62,10.62,0,0,1,17.74-5.67Q2739,951.93,2741.08,958.44Zm-5.47,1.73a23.13,23.13,0,0,0-3.12-6.57q-2.76-3.72-6-2.68t-3.39,5.63a22.4,22.4,0,0,0,1.24,7.22q3.55,11.12,9.23,9.3,3.27-1.05,3.32-5.7A23.31,23.31,0,0,0,2735.61,960.17Z" transform="translate(-766.44 -273.26)"/>
          <path class="cls-10" d="M2765.55,950.63a23.2,23.2,0,0,1,1.14,11.4,10.54,10.54,0,0,1-17.66,5.64,23.31,23.31,0,0,1-5.68-9.95q-2.08-6.53-1.17-11.35a10.62,10.62,0,0,1,17.74-5.67Q2763.48,944.11,2765.55,950.63Zm-5.47,1.72a23.13,23.13,0,0,0-3.12-6.57q-2.76-3.72-6-2.68c-2.22.71-3.35,2.58-3.39,5.63a22.35,22.35,0,0,0,1.24,7.22q3.55,11.12,9.23,9.31,3.27-1.05,3.32-5.71A23.31,23.31,0,0,0,2760.08,952.35Z" transform="translate(-766.44 -273.26)"/>
          <path class="cls-10" d="M2790,942.81a23.25,23.25,0,0,1,1.14,11.41,10.55,10.55,0,0,1-17.66,5.64,27.72,27.72,0,0,1-6.85-21.31,10.62,10.62,0,0,1,17.74-5.67Q2787.95,936.3,2790,942.81Zm-5.47,1.72a23.13,23.13,0,0,0-3.12-6.57c-1.84-2.47-3.84-3.37-6-2.68s-3.34,2.59-3.39,5.64a22.3,22.3,0,0,0,1.24,7.21q3.55,11.13,9.23,9.31,3.27-1.05,3.32-5.7A23.41,23.41,0,0,0,2784.55,944.53Z" transform="translate(-766.44 -273.26)"/>
        </g>
        <path class="cls-10" d="M2462.62,957.32,2346,994.57a9.66,9.66,0,0,1-12.1-6.24h0a9.66,9.66,0,0,1,6.24-12.1L2456.76,939a9.66,9.66,0,0,1,12.1,6.24h0A9.66,9.66,0,0,1,2462.62,957.32Z" transform="translate(-766.44 -273.26)"/>
        <g>
          <path class="cls-10" d="M2745.9,888.35a14.72,14.72,0,0,0-5.91-7.82,1.58,1.58,0,0,0-2.28.6l-.37.73a1.56,1.56,0,0,0,.51,2,10.8,10.8,0,0,1,4.09,12.8,1.58,1.58,0,0,0,.74,1.93l.73.38a1.58,1.58,0,0,0,2.21-.83A14.77,14.77,0,0,0,2745.9,888.35Z" transform="translate(-766.44 -273.26)"/>
          <path class="cls-10" d="M2753.46,885.93a22.63,22.63,0,0,0-10-12.56,1.58,1.58,0,0,0-2.2.66l-.2.41a1.56,1.56,0,0,0,.61,2.06,19.09,19.09,0,0,1,7.64,23.93,1.58,1.58,0,0,0,.7,2l.41.21a1.55,1.55,0,0,0,2.16-.73A22.64,22.64,0,0,0,2753.46,885.93Z" transform="translate(-766.44 -273.26)"/>
          <path class="cls-10" d="M2760.07,883.82a29.53,29.53,0,0,0-13.46-16.68,1.57,1.57,0,0,0-2.18.67h0a1.57,1.57,0,0,0,.62,2.06,26.46,26.46,0,0,1,10.87,34,1.57,1.57,0,0,0,.69,2.05h0a1.57,1.57,0,0,0,2.16-.73A29.55,29.55,0,0,0,2760.07,883.82Z" transform="translate(-766.44 -273.26)"/>
          <path class="cls-10" d="M2767.25,881.53A37,37,0,0,0,2750,860.42a1.59,1.59,0,0,0-2.19.66l-.36.72a1.56,1.56,0,0,0,.63,2.07A33.2,33.2,0,0,1,2761.87,907a1.57,1.57,0,0,0,.69,2.05l.71.38a1.57,1.57,0,0,0,2.16-.73A37,37,0,0,0,2767.25,881.53Z" transform="translate(-766.44 -273.26)"/>
        </g>
      </g>
    </g>
    <g>
      <rect class="cls-5" x="1445.3" y="781.54" width="254.59" height="733.3"/>
      <rect class="cls-11" x="772.72" y="781.54" width="672.59" height="733.3"/>
      <rect class="cls-12" x="1849.79" y="1102.89" width="51.33" height="672.59" transform="translate(2548.19 -709.53) rotate(90)"/>
      <rect class="cls-13" x="2313.38" y="1311.88" width="51.33" height="254.59" transform="translate(3011.77 -1173.12) rotate(90)"/>
      <path class="cls-5" d="M2002.89,1062.65s152-98.74,255.24-67l-21.31,19.9,9.6,33.45s-114.86-37.41-246.68,19.29Z" transform="translate(-766.44 -273.26)"/>
      <path class="cls-14" d="M1994.39,1040.29s-26.81-3.24-66.77-8.74c-106.08-14.59-304.78-45.12-340.45-73.37-56-44.37,76.75-232.85,134.24-259S1994.39,1040.29,1994.39,1040.29Z" transform="translate(-766.44 -273.26)"/>
      <path class="cls-15" d="M2414.79,805.59c9.58,46.69-424.35,248.41-424.35,248.41s7.9-21.34,20.74-54.77l0-.06c46.92-122.08,159.93-405.38,197.07-401.46a45,45,0,0,1,13,3.85C2278.29,626.66,2406,762.59,2414.79,805.59Z" transform="translate(-766.44 -273.26)"/>
      <path class="cls-5" d="M2217.59,643.08c-26.5,46-203.6,351.33-206.38,356.09,46.92-122.08,159.93-405.38,197.07-401.46,0,0,7.36-.21,13,3.85C2228,606.5,2232.22,617.66,2217.59,643.08Z" transform="translate(-766.44 -273.26)"/>
      <path class="cls-5" d="M1927.69,1031.55h-.07c-106.08-14.59-304.78-45.12-340.45-73.37-16.1-45.36,25.68-49,56.09-52.25S1927.69,1031.55,1927.69,1031.55Z" transform="translate(-766.44 -273.26)"/>
      <path class="cls-5" d="M1913.46,1054.74s24.32-55.34,72.2-58.4c50-3.2,78.4,58.4,78.4,58.4Z" transform="translate(-766.44 -273.26)"/>
      <rect class="cls-16" x="752.32" y="781.54" width="703.77" height="100.86"/>
      <rect class="cls-7" x="1456.09" y="781.54" width="265.26" height="100.86"/>
      <path class="cls-5" d="M1938.11,1046.35s-137.84-43.66-230.85-14.8c-107.22,33.28-100.86,165.57-100.86,165.57l25.21-10.37,34,16s5.74-140.08,93.16-159.69C1834.39,1026.07,1938.11,1046.35,1938.11,1046.35Z" transform="translate(-766.44 -273.26)"/>
      <rect class="cls-12" x="1049.63" y="781.54" width="51.32" height="733.23"/>
    </g>
    <g>
      <rect class="cls-2" x="1370.55" y="838.85" width="49.7" height="143.14" transform="translate(-983.43 217.38) rotate(-18.53)"/>
      <rect class="cls-17" x="1243.95" y="867.6" width="131.29" height="143.14" transform="translate(-997.01 191.6) rotate(-18.53)"/>
      <rect class="cls-11" x="1305.68" y="876.81" width="10.02" height="131.29" transform="translate(1021.3 -873.06) rotate(71.47)"/>
      <rect class="cls-5" x="1391.49" y="888.85" width="10.02" height="49.7" transform="translate(1052.62 -974.02) rotate(71.47)"/>
      <path class="cls-5" d="M1314.72,859.65s32.35-30.11,61.16-32.45l-4.12,5.34,4.78,5.38s-32.18,2.2-62.25,23Z" transform="translate(-766.44 -273.26)"/>
      <g>
        <path class="cls-18" d="M1308,861.25s-5.16,1.06-12.9,2.53c-20.54,3.88-59.21,10.55-67.56,7.54-13.13-4.74-.24-47.86,8.78-56.27S1308,861.25,1308,861.25Z" transform="translate(-766.44 -273.26)"/>
        <g>
          <path class="cls-19" d="M1371.21,791.73c4.67,8-63.13,72.3-63.13,72.3s.14-4.44.44-11.42h0c1.11-25.51,4.45-85,11.57-86.53a8.56,8.56,0,0,1,2.64-.09C1334.85,767.08,1366.91,784.32,1371.21,791.73Z" transform="translate(-766.44 -273.26)"/>
          <path class="cls-5" d="M1324.63,773.89c-2.05,10.16-15.89,77.65-16.1,78.71,1.11-25.51,4.45-85,11.57-86.53a4.55,4.55,0,0,1,2.64-.09C1324.29,766.47,1325.77,768.28,1324.63,773.89Z" transform="translate(-766.44 -273.26)"/>
        </g>
        <path class="cls-5" d="M1295.08,863.77h0c-20.54,3.88-59.21,10.55-67.56,7.54-5.8-7.4,1.71-10.68,7.14-13.15S1295.08,863.77,1295.08,863.77Z" transform="translate(-766.44 -273.26)"/>
        <path class="cls-5" d="M1293.88,869s1.07-11.76,9.74-15.29c9.06-3.7,18.13,5.94,18.13,5.94Z" transform="translate(-766.44 -273.26)"/>
      </g>
      <rect class="cls-16" x="1220.4" y="871.1" width="137.38" height="19.69" transform="translate(-979.58 182.07) rotate(-18.53)"/>
      <rect class="cls-20" x="1352.87" y="841.05" width="51.78" height="19.69" transform="translate(-965.37 208.99) rotate(-18.53)"/>
      <path class="cls-5" d="M1297.92,865.86s-28.22.47-43.64,11.59c-17.78,12.81-8.4,36.9-8.4,36.9l4-3.49,7.29.85s-7.62-26.29,7.34-35.34C1277.47,868.54,1297.92,865.86,1297.92,865.86Z" transform="translate(-766.44 -273.26)"/>
      <rect class="cls-11" x="1298.54" y="869.66" width="10.02" height="144.38" transform="translate(-998.21 189.91) rotate(-18.53)"/>
    </g>
    <g>
      <path class="cls-3" d="M2217.06,1132.59s-18.63,11-7.2,32.24c0,0-16.31-3-19.83-7.85a12.87,12.87,0,0,0,1,3s-15-3.4-19.9-9.66,19.15-81.23,58.14-61.81c0,0,35.65,6.61,21.69,46.19s-.77,43.08-.77,43.08-4.15.84-5.92.37c0,0-2.33-1.68-2.46-3.24a9.62,9.62,0,0,0,.39,3.27s-14.6-2.42-20.29-9.68S2212.82,1140.4,2217.06,1132.59Z" transform="translate(-766.44 -273.26)"/>
      <path class="cls-21" d="M2190.16,1196.31l-.07,0C2190,1196.32,2190,1196.31,2190.16,1196.31Z" transform="translate(-766.44 -273.26)"/>
      <path class="cls-21" d="M2235.45,1183.27c.54,4.91,1.2,9.31,1.49,11.41.65,4.7-43.94,1.64-46.78,1.63,2-.86,8-20,9.94-27.37,2.32-8.88,4.15-18.47,4.15-18.47l31.49,2,1.87.12a109.13,109.13,0,0,0-2.56,12.11c-.07.5-.15,1-.22,1.51C2234.26,1170.38,2234.77,1177.21,2235.45,1183.27Z" transform="translate(-766.44 -273.26)"/>
      <path class="cls-3" d="M2199.91,1147.3s-5.11-16.19-4.08-28.61c.74-8.86,13.36-39.1,43.69-26.23a44.37,44.37,0,0,1,16,11.42c5.63,6.44,12.86,19-5.43,43.49l-5.32,8.49Z" transform="translate(-766.44 -273.26)"/>
      <path class="cls-22" d="M2235.45,1183.27c-22-6.45-31.38-31.9-31.38-31.9,9.32.28,21.46,6.75,31,13.32-.07.5-.15,1-.22,1.51C2234.26,1170.38,2234.77,1177.21,2235.45,1183.27Z" transform="translate(-766.44 -273.26)"/>
      <path class="cls-21" d="M2237,1174.33s-39.8-9.83-33.29-34.52,5.75-42.59,31.43-37.35,28.12,16,27.95,24.72S2247.52,1176.26,2237,1174.33Z" transform="translate(-766.44 -273.26)"/>
      <path class="cls-3" d="M2253.36,1106.63s-18.51,26.09-36.3,26-23.82-6.5-23.82-6.5a48.71,48.71,0,0,0,22.79-23.77S2248.82,1090.68,2253.36,1106.63Z" transform="translate(-766.44 -273.26)"/>
      <path class="cls-3" d="M2250.05,1108.27s6.39,8.61,6.7,15.42-2.23,20,1.66,20.54c0,0,13.39-17.52,7.15-31.08C2258.94,1098.76,2250.05,1108.27,2250.05,1108.27Z" transform="translate(-766.44 -273.26)"/>
      <path class="cls-3" d="M2251.29,1109.65s-15.75,28.27-39.33,32.42c0,0,25.94-13.06,33-32.61S2251.29,1109.65,2251.29,1109.65Z" transform="translate(-766.44 -273.26)"/>
      <path class="cls-23" d="M2230.79,1158.51s.5,3.75,2.9,4.64,8.76,2.5,9.41,2.1a31.62,31.62,0,0,0,3-3.33S2236.1,1158.08,2230.79,1158.51Z" transform="translate(-766.44 -273.26)"/>
      <path class="cls-21" d="M2215.94,1536.16c-.51,2.11-1,4.2-1.51,6.27-3,12.47-5.8,24-7.55,33.71-2.29,12.59-2.83,21.95.17,25.89,12.36,16.21,0,144.8,0,144.8L2193,1761.32s-24.45-127-31.08-146.86c-3-9-7.41-47.67-11.29-87.09q-.3-3-.58-5.92c-.67-6.9-1.32-13.77-1.94-20.48-3.48-37.3-6.08-69.25-6.08-69.25s25.93-18.23,49.5-20.27c13.88-1.21,26.94,3.21,33.39,20.27C2234.29,1456.54,2224.77,1499.39,2215.94,1536.16Z" transform="translate(-766.44 -273.26)"/>
      <path class="cls-22" d="M2215.94,1536.16c-19.28-13.92-46.39-38.68-56.23-79.28-1.88-20.19,14-39.37,31.8-45.43,13.88-1.21,26.94,3.21,33.39,20.27C2234.29,1456.54,2224.77,1499.39,2215.94,1536.16Z" transform="translate(-766.44 -273.26)"/>
      <path class="cls-21" d="M2286.21,1291l94.71,24.46v11.06s-94.25-1.11-100.33-11.61S2286.21,1291,2286.21,1291Z" transform="translate(-766.44 -273.26)"/>
      <path class="cls-21" d="M2380.92,1655.44l-4.43,18.28s-128.11-66.17-144.68-78.88c-6.66-5.1-15.45-32.83-23.6-64.19-12.13-46.75-22.83-101.58-22.83-101.58s18-69.07,66-26.8c28.77,25.3,24.29,74,21.14,112-2.09,25.44-3.6,46,5.94,51.33,18.61,10.39,73.21,58.23,90.5,91.14Z" transform="translate(-766.44 -273.26)"/>
      <path class="cls-21" d="M2163.59,1348.41c-33.45-8.51-70.23-60.42-70.23-60.42l9.42-8.17c9.75,11.5,50.31,31.3,50.31,31.3-.22-10.52,0-20.12.72-28.85,4.5-59.38,26.88-79.16,33-83.5a14.32,14.32,0,0,1,1.55-1s0,.43.06,1.25c.09,1.76.25,5.32.42,10.2C2190.07,1245.56,2191.55,1355.53,2163.59,1348.41Z" transform="translate(-766.44 -273.26)"/>
      <path class="cls-23" d="M2190.09,1277.16c-1.74,42.35-8.07,84.3-26.51,81.6-22.61-3.3-28.5-24.4-29.7-40.09a90.42,90.42,0,0,1,.33-17.42s11.13,0,12.93-1.71c8.54-7.89,6-85.3,10.24-93.34s31.67-13.19,31.67-13.19S2191.81,1235.29,2190.09,1277.16Z" transform="translate(-766.44 -273.26)"/>
      <path class="cls-13" d="M2190.09,1277.16c-1.74,42.35-8.07,84.3-26.51,81.6-22.61-3.3-28.5-24.4-29.7-40.09,5.55-.27,15.32-1.63,19.21-7.55,5.55-8.48,22.9-63,22.9-63S2182.81,1260.33,2190.09,1277.16Z" transform="translate(-766.44 -273.26)"/>
      <path class="cls-23" d="M2332.69,1291c6.12,8.7,2.75,25.57-10.1,39.15-8,8.44-18.79,13.43-36.38,10.84-7.66-1.13-29.09-13.23-31.34-28-.41-2.67-.63-4.24-.63-4.24s-9.76,9.77-10.12,11.61c-.16.83-1,8.21-1.14,9.22a35.65,35.65,0,0,0,.72,5.7s-46.6,20.38-85.12-2.82c0,0-11-94.13-3.1-109.79,3.92-7.78,25.91-22.94,33.57-29.63,1.72-1.51,3.47-6,3-9-.39-2.47,2.46-6.64,4.84-5.88,4.6,1.47,17.63,7.92,26.8,5.46,4.56-1.21,10.35-6.49,14.78-5.28,5.41,1.48-.3,14.5,2.76,14.67,4.23.2,27.05,4.77,29,8.45.67,1.28,7.23,18.65,15.45,41.63a.15.15,0,0,1,0,.06C2301.07,1286.27,2323.7,1278.18,2332.69,1291Z" transform="translate(-766.44 -273.26)"/>
      <path class="cls-13" d="M2254.24,1308.72s-1.14-35.9-4-35.46-44.76,40.73-34.81,56.84S2254.24,1308.72,2254.24,1308.72Z" transform="translate(-766.44 -273.26)"/>
      <path class="cls-8" d="M2286.21,1456a278.71,278.71,0,0,1-39.9,8.27c-29.42,4.07-70.56,5.54-107.3-8.27,0,0-3-54.67,5.68-83.17s12.77-42.13,12.77-42.13,34.88,8.74,70.3,2a115.87,115.87,0,0,0,14.86-3.84s21.85,46.39,27.85,66.27S2286.21,1456,2286.21,1456Z" transform="translate(-766.44 -273.26)"/>
      <path class="cls-3" d="M2286.21,1456a278.71,278.71,0,0,1-39.9,8.27c-43.58-24.71-22.33-128.7-22.33-128.7q2-1.57,3.78-2.91a115.87,115.87,0,0,0,14.86-3.84s21.85,46.39,27.85,66.27S2286.21,1456,2286.21,1456Z" transform="translate(-766.44 -273.26)"/>
      <path class="cls-24" d="M2194.5,1340.94c-25.84,0-36.48-8.9-37.27-9.5l-1.67-12.17c.24.18,34.91,21,88.56,1.06l-1.14,9.22C2222.35,1337.22,2207.92,1340.94,2194.5,1340.94Z" transform="translate(-766.44 -273.26)"/>
      <path class="cls-21" d="M2380.92,1315.41s17.38-8.56,24.28-9.39,18.51-1.1,18.51,0-12.43,8.83-15.74,9.39-9.67,5.25-7.74,5.81,12.16-1.8,12.29,0-6.21,2.9-7.32,4.28-5,3-11.19,2.21-13.09-1.24-13.09-1.24Z" transform="translate(-766.44 -273.26)"/>
      <path class="cls-21" d="M2102.76,1279.79l-9.44,8.24s-16.78-12.26-17.59-17.28v-.51c0-5.22,10.65-16.07,19.5-16.47a4.81,4.81,0,0,1,2.41.6c4.71,3,5.27,15.22,5.23,21.57C2102.85,1278.26,2102.76,1279.79,2102.76,1279.79Z" transform="translate(-766.44 -273.26)"/>
      <path class="cls-8" d="M2380.92,1655.44l-4.43,18.28s-128.11-66.17-144.68-78.88c-6.66-5.1-15.45-32.83-23.6-64.19,10.93,2.24,34.55,3.44,64.35-16.42-2.09,25.44-3.6,46,5.94,51.33,18.61,10.39,73.21,58.23,90.5,91.14Z" transform="translate(-766.44 -273.26)"/>
      <path class="cls-25" d="M2406.24,1662.54l-.11,0c-.58-.14-3.21-1-5-5.2-1.15-2.76-1.49-5-2.55-7.76l-4.33-7.46c-4.52-6-6.11-4.56-6.11-4.56s-1.18,1.51-2.93,3.51c-2.89,3.3-7.31,7.91-10.44,9.09a9.12,9.12,0,0,0-4.48,3.5,8.56,8.56,0,0,0-1.33,3.07s9.29,1.62,8.48,6.2c-1.58,8.86-1.21,10.47-1.05,10.76l.06.06s15.84,8.29,20.91,9.92c9,2.89,13.72,9,16.65,11.81a5.19,5.19,0,0,0,4.43,1.4c2.38-.37,5.46-1.14,6.14-2.59Z" transform="translate(-766.44 -273.26)"/>
      <path class="cls-3" d="M2207.05,1602c12.36,16.21,0,144.8,0,144.8L2193,1761.32s-24.45-127-31.08-146.86c-3-9-7.41-47.67-11.29-87.09,11.72,5.23,40.32,16.61,63.82,15.06-3,12.47-5.8,24-7.55,33.71C2204.59,1588.73,2204.05,1598.09,2207.05,1602Z" transform="translate(-766.44 -273.26)"/>
      <path class="cls-25" d="M2221.19,1767.76l-7.59,4.11c-2.76,1-5,1.26-7.83,2.33-4.24,1.62-7.22,4.81-7.36,5.39-2.14,8.7-5.18,8.15-5.18,8.15l-30.49.29c-1.44-.72,1-6.88,2.17-8,2.88-2.84,11.5-1.41,14.65-10.34,1.78-5,10.52-20.61,10.52-20.61l.06,0c.3-.16,1.92-.48,10.73,1.35,4.55.94,6.44-8.3,6.44-8.3a8.66,8.66,0,0,1,3,1.43,9.07,9.07,0,0,1,3.37,4.57c1.09,3.17,5.57,7.72,8.78,10.7,2,1.81,3.43,3,3.43,3S2227.27,1763.41,2221.19,1767.76Z" transform="translate(-766.44 -273.26)"/>
    </g>
    <g>
      <rect class="cls-8" x="1018.8" y="1142.84" width="129.47" height="372.93"/>
      <rect class="cls-4" x="676.75" y="1142.84" width="342.05" height="372.93"/>
      <rect class="cls-16" x="1601.17" y="1440.55" width="26.1" height="342.05" transform="translate(2459.35 -275.9) rotate(90)"/>
      <rect class="cls-7" x="1836.93" y="1546.84" width="26.1" height="129.47" transform="translate(2695.11 -511.66) rotate(90)"/>
      <path class="cls-3" d="M1692.71,1410.36s104.87-47.6,178-29.51l-14.59,9.77,7.35,17.24s-81.32-21.2-172.82,5.31Z" transform="translate(-766.44 -273.26)"/>
      <g>
        <path class="cls-26" d="M1674.75,1408.53s-13.64-1.64-34-4.44c-54-7.42-155-22.95-173.14-37.31-28.5-22.57,39-118.42,68.27-131.73S1674.75,1408.53,1674.75,1408.53Z" transform="translate(-766.44 -273.26)"/>
        <path class="cls-26" d="M1888.54,1289.18c4.88,23.74-215.8,126.33-215.8,126.33s4-10.86,10.54-27.86l0,0c23.86-62.08,81.34-206.16,100.22-204.17a23.24,23.24,0,0,1,6.6,2C1819.13,1198.18,1884.06,1267.31,1888.54,1289.18Z" transform="translate(-766.44 -273.26)"/>
        <path class="cls-3" d="M1788.26,1206.53c-13.48,23.41-103.55,178.67-105,181.09,23.86-62.08,81.34-206.16,100.22-204.17a12.09,12.09,0,0,1,6.6,2C1793.56,1187.92,1795.7,1193.6,1788.26,1206.53Z" transform="translate(-766.44 -273.26)"/>
        <path class="cls-3" d="M1640.83,1404.09h0c-54-7.42-155-22.95-173.14-37.31-8.19-23.07,13.06-25,28.53-26.58S1640.83,1404.09,1640.83,1404.09Z" transform="translate(-766.44 -273.26)"/>
        <path class="cls-27" d="M1633.59,1415.88s12.37-28.14,36.72-29.7c25.43-1.63,39.87,29.7,39.87,29.7Z" transform="translate(-766.44 -273.26)"/>
      </g>
      <rect class="cls-8" x="666.38" y="1142.84" width="357.91" height="51.29"/>
      <rect class="cls-3" x="1024.29" y="1142.84" width="134.9" height="51.29"/>
      <path class="cls-3" d="M1646.08,1411.8s-70.1-22.2-117.4-7.52c-54.52,16.92-51.29,84.2-51.29,84.2l12.82-5.28,17.31,8.13s2.92-71.24,47.37-81.22C1593.33,1401.49,1646.08,1411.8,1646.08,1411.8Z" transform="translate(-766.44 -273.26)"/>
      <rect class="cls-16" x="817.57" y="1142.84" width="26.1" height="376.14"/>
    </g>
    <g>
      <path class="cls-25" d="M1029,1263s96.41,70.65,120,69,107.1-53.24,107.1-53.24l-17.67-21s-75.64,28-89.49,20.3-67.94-73.31-90.64-69.81S1013.16,1237.57,1029,1263Z" transform="translate(-766.44 -273.26)"/>
      <g>
        <path class="cls-25" d="M972.12,1793.85H943.3c-3.63-2-6.86-6.48-7.88-13.21-1.41-9.28-11.82-14.34-14.07-21.94s9.29-18.28,9.29-18.28l1.93-2.49,2-2.58,19.13,4.51s.48,4.55.76,10.36c.21,4.18.32,9,.09,13.27-.57,10.12,2.83,21,11.83,23C973,1787.94,972.73,1791.89,972.12,1793.85Z" transform="translate(-766.44 -273.26)"/>
        <path class="cls-25" d="M1139.39,1793.85h-65.91c-3.17-3.87-2-18.14-1.53-22.81.1-.93.17-1.48.17-1.48s22.51-18,25.6-4.22c.09.43.21.86.33,1.27,3.9,12.9,21.37,18.76,31.46,20.39C1136.06,1788.06,1138.49,1791.47,1139.39,1793.85Z" transform="translate(-766.44 -273.26)"/>
        <path class="cls-11" d="M1126.83,1425.94s-3.42,42.64-7.44,93.9c-5.46,69.62-12,155.15-12.67,171.35-1.12,28.13-5.63,73.14-5.63,73.14s-10.68,10.69-32.07,6.18c0,0-19-64.24-24.49-132.21-.09-1.12-.17-2.24-.26-3.36-5.06-69.2-12.93-214.9-12.93-214.9Z" transform="translate(-766.44 -273.26)"/>
        <path class="cls-5" d="M1126.83,1425.94s-3.42,42.64-7.44,93.9l-74.86,118.46c-.09-1.12-.17-2.24-.26-3.36-5.06-69.2-12.93-214.9-12.93-214.9Z" transform="translate(-766.44 -273.26)"/>
        <path class="cls-11" d="M1111.22,1431s-61.6,154.42-102.11,227S956,1750.83,956,1750.83s-23.2-9.29-25.31-15.62c0,0,15.49-140.1,42.61-174.25,15.33-19.3,33.33-77.21,34.18-97.47s5.48-60.33,5.48-60.33Z" transform="translate(-766.44 -273.26)"/>
      </g>
      <path class="cls-21" d="M1070.62,1211.13c-23,10.42-66.8-5-66.8-5s20-19.19,14.74-53.44l20.28,12.67,13.77,8.6a150.06,150.06,0,0,1,.55,16.59c0,2.79-.11,5.91-.27,9.33A57.68,57.68,0,0,1,1070.62,1211.13Z" transform="translate(-766.44 -273.26)"/>
      <path class="cls-22" d="M1052.61,1174a150.06,150.06,0,0,1,.55,16.59c-14.19-.71-32.68-21.29-32.68-21.29a44.54,44.54,0,0,1,18.36-3.9Z" transform="translate(-766.44 -273.26)"/>
      <path class="cls-21" d="M1059.85,1172.56s-38.69,11.32-45.36-12.88-16.17-39,8.25-47.28,31.78-.35,36,7.19S1069.74,1169,1059.85,1172.56Z" transform="translate(-766.44 -273.26)"/>
      <path class="cls-3" d="M1129.23,1410.74c1.2,11.15,1.77,18.1,1.5,18.37a3.85,3.85,0,0,1-2.4,1.26c-9,1-34.56,9.1-57,9.5-18.88.46-36.07-3.08-54.78-8.9-2.48-.77-8.25-3-8.44-5.67-.27-2.88-.49-7.11-.77-12.42-1-18.46-2.55-50.22-9.07-86.32-1.2-6.71-2.21-13.41-3-20-6.12-49.23-1.57-93.73,16.28-110.77,1.54-1.4,12.43,2.39,22.45,5.92a39.39,39.39,0,0,0,26.11,0l9.13,6.3c11.18,8.13,23.72,19.49,30.83,38.18,6,15.9,12,45.18,17,75.65,2.27,13.82,4.44,27.76,6.16,41l.06.48c.27,1.3.45,2.74.61,4.06.31,2.36.62,4.67.92,7C1126.68,1388.54,1128.19,1401.18,1129.23,1410.74Z" transform="translate(-766.44 -273.26)"/>
      <path class="cls-3" d="M1014.17,1157.31s4-1.16,2.64-6.66-2.19-12.8,2.51-12,5.36,4.42,7,2.08.56-11.29,14-13.54,19.47,1.79,25.42-1.73,5.13-13.06,5.13-13.06-1.38,3.61-3.94,5c0,0,8.74-15.59-4.57-24s-24.89-.44-31.86.83c-15.35,2.8-25.22,4.93-29.05,15.7S1003.07,1148.73,1014.17,1157.31Z" transform="translate(-766.44 -273.26)"/>
      <path class="cls-25" d="M1129.23,1410.74c-1.9.34-34.89,6.27-57.32-8.51-23.09-15.21-50.15-105.39-50.15-105.39s51.87,57.68,52.88,60c.84,1.91,38.25,13.81,50.18,17.57C1126.68,1388.54,1128.19,1401.18,1129.23,1410.74Z" transform="translate(-766.44 -273.26)"/>
      <g>
        <g>
          <rect class="cls-11" x="1143.28" y="1123.11" width="256.61" height="256.61" transform="translate(-784.12 -255.04) rotate(-0.82)"/>
          <rect class="cls-28" x="1088.52" y="1123.89" width="256.61" height="256.61" transform="translate(-784.13 -255.82) rotate(-0.82)"/>
        </g>
        <path class="cls-12" d="M1120.34,1204.52c-.35-24.22,16.25-44,41.21-44.39,24.71-.35,41.61,18.74,42,43.2.34,24-16.25,44-41.21,44.39C1137.6,1248.07,1120.68,1229,1120.34,1204.52Zm141.54-43.86,29.11-.41-122.58,173-29.11.42Zm-84.05,43c-.17-11.5-6.67-21.44-16.46-21.3-10.27.15-15.51,10-15.35,21.75.17,11.5,6.67,21.44,16.46,21.3C1172.75,1225.3,1178,1215.2,1177.83,1203.7Zm49,86.9c-.35-24.22,16.25-44,41.21-44.38,24.7-.36,41.61,18.73,42,43.2.34,24-16.25,44-41.21,44.38C1244,1334.15,1227.12,1315.07,1226.78,1290.6Zm57.49-.82c-.17-11.5-6.67-21.43-16.46-21.29-10.27.14-15.51,10-15.35,21.75.17,11.49,6.67,21.43,16.46,21.29C1279.19,1311.39,1284.43,1301.28,1284.27,1289.78Z" transform="translate(-766.44 -273.26)"/>
      </g>
      <path class="cls-21" d="M1216,1390.43c-8.66-.16-19.77-3.88-23.34-5.65a40.4,40.4,0,0,1-9.08-5.9l.91-5.7,1.1-6.81s.67-.11,1.78-.22,2.66-.24,4.43-.27a5.77,5.77,0,0,0,5.2-1.24c2.36-2.11,6.69-3.53,10-2.75s10.34.06,10.56,1.2c.55,2.78-9.73,2.28-10.93,4a2,2,0,0,0,.11,2.83l0,0c6,6.07,26.73,8.27,25.91,13.1C1232.3,1384.87,1219.61,1390.5,1216,1390.43Z" transform="translate(-766.44 -273.26)"/>
      <path class="cls-3" d="M1006,1262.29s47.45,109.7,68.66,120.16,118,2.33,118,2.33l.64-18.73s-83.35-16.51-91.39-30.17-21.55-97.6-42.9-106.06S1005.16,1232.37,1006,1262.29Z" transform="translate(-766.44 -273.26)"/>
    </g>
    <g>
      <path class="cls-29" d="M2684.3,1556c-1.05.64-2.12,1.26-3.2,1.86l-1.11.59c-.84.45-1.68.88-2.52,1.3a85.25,85.25,0,0,1-78.68-151.21c1.09-.6,2.19-1.18,3.3-1.72s2.16-1,3.25-1.53a84.81,84.81,0,0,1,25.59-6.88A85.26,85.26,0,0,1,2684.3,1556Z" transform="translate(-766.44 -273.26)"/>
      <path class="cls-5" d="M2640.5,1561.74a77.72,77.72,0,1,1,37.43-9.67A77.73,77.73,0,0,1,2640.5,1561.74Zm-.14-150.74a73.06,73.06,0,1,0,64,37.79A73.17,73.17,0,0,0,2640.36,1411Z" transform="translate(-766.44 -273.26)"/>
      <polygon class="cls-5" points="1873.99 1153.61 1891.12 1188.31 1929.42 1193.88 1901.7 1220.89 1908.24 1259.04 1873.99 1241.03 1839.73 1259.04 1846.27 1220.89 1818.55 1193.88 1856.86 1188.31 1873.99 1153.61"/>
    </g>
    <g>
      <path class="cls-30" d="M2735.39,1348.51c-.6.36-1.2.71-1.81,1l-.62.33c-.48.26-.95.5-1.43.74a48.12,48.12,0,0,1-49.32-82.24,47.34,47.34,0,0,1,4.91-3.1c.62-.34,1.24-.67,1.87-1s1.22-.59,1.83-.86a47.75,47.75,0,0,1,5.73-2.13,47.18,47.18,0,0,1,8.71-1.75,48.12,48.12,0,0,1,30.13,88.94Z" transform="translate(-766.44 -273.26)"/>
      <path class="cls-5" d="M2710.66,1351.76a43.83,43.83,0,1,1,21.13-5.45A43.89,43.89,0,0,1,2710.66,1351.76Zm-.07-85.07a41.22,41.22,0,1,0,36.14,21.33A41.17,41.17,0,0,0,2710.59,1266.69Z" transform="translate(-766.44 -273.26)"/>
      <polygon class="cls-5" points="1944.18 1002.38 1953.85 1021.97 1975.47 1025.11 1959.83 1040.36 1963.52 1061.89 1944.18 1051.73 1924.85 1061.89 1928.54 1040.36 1912.9 1025.11 1934.51 1021.97 1944.18 1002.38"/>
    </g>
    <g>
      <path class="cls-31" d="M1910.14,725.07c-.35.43-.71.86-1.08,1.27-.13.15-.25.29-.38.42-.29.32-.59.63-.88.94a38.55,38.55,0,0,1-59.18-49,37.9,37.9,0,0,1,2.88-3.66c.37-.42.76-.83,1.15-1.23s.76-.77,1.15-1.14a38.45,38.45,0,0,1,9.88-6.78,38.55,38.55,0,0,1,46.46,59.16Z" transform="translate(-766.44 -273.26)"/>
      <path class="cls-5" d="M1880.57,736.13a35.19,35.19,0,1,1,2.07-.06Q1881.61,736.13,1880.57,736.13Zm.09-68.15c-.65,0-1.29,0-1.94.06a32.8,32.8,0,1,0,1.94-.06Z" transform="translate(-766.44 -273.26)"/>
      <polygon class="cls-5" points="1105.57 403.36 1118.1 415.59 1135.26 412.2 1127.51 427.88 1136.04 443.17 1118.72 440.64 1106.83 453.47 1103.88 436.22 1088 428.88 1103.49 420.74 1105.57 403.36"/>
    </g>
    <g>
      <path class="cls-32" d="M1797.44,1762.77c-.63.77-1.28,1.53-1.94,2.28l-.68.75c-.52.57-1,1.12-1.58,1.67a68.85,68.85,0,0,1-100.56-94c.67-.75,1.36-1.49,2.06-2.2s1.36-1.38,2.06-2a69.48,69.48,0,0,1,6.72-5.6,67.4,67.4,0,0,1,10.92-6.51,68.86,68.86,0,0,1,83,105.67Z" transform="translate(-766.44 -273.26)"/>
      <path class="cls-5" d="M1744.62,1782.52a63,63,0,1,1,3.69-.11C1747.08,1782.49,1745.85,1782.52,1744.62,1782.52Zm.16-121.72c-1.16,0-2.31,0-3.48.1a58.89,58.89,0,1,0,3.48-.1Z" transform="translate(-766.44 -273.26)"/>
      <polygon class="cls-5" points="962.89 1402.98 985.26 1424.81 1015.92 1418.75 1002.08 1446.78 1017.31 1474.07 986.38 1469.56 965.13 1492.48 959.86 1461.67 931.5 1448.55 959.17 1434.01 962.89 1402.98"/>
    </g>
    <g>
      <path class="cls-4" d="M2013.16,1318.91s-9.54,6.5-20.14,5.43c-7.86-.8-15.62-8.08-15.92-8.57l-6.27,10.91s14.34,8.69,26.64,6.31c3.76-.73,9.87-4.47,12.63-7.27A10.67,10.67,0,0,0,2013.16,1318.91Z" transform="translate(-766.44 -273.26)"/>
      <path class="cls-3" d="M2012.9,1296.19l15.75-6.53s-2.16,32.76-29.22,42.76C1999.43,1332.42,2016.53,1310,2012.9,1296.19Z" transform="translate(-766.44 -273.26)"/>
    </g>
    <path class="cls-6" d="M2123.46,1687.7s6.88,7.79,13.65,7.64c0,0,.9,8.53-1.54,10.79,0,0-11.59-2.11-14.38-6.35C2121.19,1699.78,2118.85,1689.62,2123.46,1687.7Z" transform="translate(-766.44 -273.26)"/>
    <g>
      <path class="cls-33" d="M2015.5,1580.54s-6.23-7.56-6.14-16.61c.07-6.72,5.63-13.83,6-14.12l-9.71-4.47s-6.25,12.8-3.29,23c.9,3.13,4.54,8,7.12,10.13A9.08,9.08,0,0,0,2015.5,1580.54Z" transform="translate(-766.44 -273.26)"/>
      <path class="cls-33" d="M2034.69,1578.58l6.73,12.82s-27.87.69-38.41-21.43C2003,1570,2023.29,1582.71,2034.69,1578.58Z" transform="translate(-766.44 -273.26)"/>
    </g>
  </g>
</svg>
